<svg width="136" height="68" viewBox="0 0 136 68" fill="none" xmlns="http://www.w3.org/2000/svg">
<rect x="5" width="35" height="35" fill="white"/>
<rect x="50" width="35" height="35" rx="17.5" fill="white"/>
<rect x="95" width="35" height="35" rx="17.5" fill="white"/>
<path d="M4.194 50.47V53.026H8.316V55.402H4.194V58.174H8.856V60.64H1.116V48.004H8.856V50.47H4.194ZM31.4643 48.004V60.64H28.3863V53.062L25.5603 60.64H23.0763L20.2323 53.044V60.64H17.1543V48.004H20.7903L24.3363 56.752L27.8463 48.004H31.4643ZM49.6077 52.072C49.6077 52.804 49.4397 53.476 49.1037 54.088C48.7677 54.688 48.2517 55.174 47.5557 55.546C46.8597 55.918 45.9957 56.104 44.9637 56.104H43.0557V60.64H39.9777V48.004H44.9637C45.9717 48.004 46.8237 48.178 47.5197 48.526C48.2157 48.874 48.7377 49.354 49.0857 49.966C49.4337 50.578 49.6077 51.28 49.6077 52.072ZM44.7297 53.656C45.3177 53.656 45.7557 53.518 46.0437 53.242C46.3317 52.966 46.4757 52.576 46.4757 52.072C46.4757 51.568 46.3317 51.178 46.0437 50.902C45.7557 50.626 45.3177 50.488 44.7297 50.488H43.0557V53.656H44.7297ZM60.5881 58.264H64.6201V60.64H57.5101V48.004H60.5881V58.264ZM78.3643 60.766C77.1763 60.766 76.0843 60.49 75.0883 59.938C74.1043 59.386 73.3183 58.618 72.7303 57.634C72.1543 56.638 71.8663 55.522 71.8663 54.286C71.8663 53.05 72.1543 51.94 72.7303 50.956C73.3183 49.972 74.1043 49.204 75.0883 48.652C76.0843 48.1 77.1763 47.824 78.3643 47.824C79.5523 47.824 80.6383 48.1 81.6223 48.652C82.6183 49.204 83.3983 49.972 83.9623 50.956C84.5383 51.94 84.8263 53.05 84.8263 54.286C84.8263 55.522 84.5383 56.638 83.9623 57.634C83.3863 58.618 82.6063 59.386 81.6223 59.938C80.6383 60.49 79.5523 60.766 78.3643 60.766ZM78.3643 57.958C79.3723 57.958 80.1763 57.622 80.7763 56.95C81.3883 56.278 81.6943 55.39 81.6943 54.286C81.6943 53.17 81.3883 52.282 80.7763 51.622C80.1763 50.95 79.3723 50.614 78.3643 50.614C77.3443 50.614 76.5283 50.944 75.9163 51.604C75.3163 52.264 75.0163 53.158 75.0163 54.286C75.0163 55.402 75.3163 56.296 75.9163 56.968C76.5283 57.628 77.3443 57.958 78.3643 57.958ZM103.675 48.004L99.3007 56.464V60.64H96.2227V56.464L91.8487 48.004H95.3407L97.7887 53.296L100.219 48.004H103.675ZM114.293 50.47V53.026H118.415V55.402H114.293V58.174H118.955V60.64H111.215V48.004H118.955V50.47H114.293ZM130.331 50.47V53.026H134.453V55.402H130.331V58.174H134.993V60.64H127.253V48.004H134.993V50.47H130.331Z" fill="white"/>
</svg>
